<?xml version="1.0" encoding="utf-8"?>
<!-- Generator: Adobe Illustrator 26.0.1, SVG Export Plug-In . SVG Version: 6.00 Build 0)  -->
<svg version="1.1" id="Layer_1" xmlns="http://www.w3.org/2000/svg" xmlns:xlink="http://www.w3.org/1999/xlink" x="0px" y="0px"
	 viewBox="0 0 412 915" style="enable-background:new 0 0 412 915;" xml:space="preserve">
<style type="text/css">
	.st0{fill:url(#SVGID_1_);}
	.st1{opacity:0.9;fill:url(#SVGID_00000098933755225765967400000006879856832631764410_);}
	.st2{opacity:0.9;fill:url(#SVGID_00000148631717103123175850000007960224511834758589_);}
	.st3{fill:url(#SVGID_00000181080089543759380310000011415075787278086814_);}
	.st4{fill:url(#SVGID_00000116200220962172087770000007572307419795533743_);}
	.st5{opacity:0.9;fill:url(#SVGID_00000127765354279140428370000008169950112290430878_);}
	.st6{opacity:0.9;fill:url(#SVGID_00000077290531726021573680000002582558902714063551_);}
	.st7{opacity:0.9;fill:url(#SVGID_00000069361714154186873520000013852595138000828329_);}
	.st8{opacity:0.9;fill:url(#SVGID_00000154418568733840787060000011349781460010131108_);}
	.st9{opacity:0.9;fill:url(#SVGID_00000067201070470162949840000002073465123806091681_);}
	.st10{opacity:0.9;fill:url(#SVGID_00000183942493968992693330000006677775052613709988_);}
	.st11{fill:url(#SVGID_00000180365861139651007030000017042215688083892640_);}
	.st12{fill:url(#SVGID_00000020381923439017761290000001981103051257464229_);}
	.st13{fill:url(#SVGID_00000039817104226212885820000004275667806736628904_);}
	.st14{fill:url(#SVGID_00000133528815455898107490000001387409408806580608_);}
	.st15{fill:url(#SVGID_00000116945390749813234050000002991862299407794842_);}
	.st16{fill:url(#SVGID_00000118363630708678708470000006476591631856604329_);}
	.st17{opacity:0.9;fill:url(#SVGID_00000005237366045781176750000010436871873813505190_);}
	.st18{opacity:0.9;fill:url(#SVGID_00000145042434415447622340000003296232626501359525_);}
	.st19{opacity:0.9;fill:url(#SVGID_00000183942207659405199750000008847309959778137784_);}
	.st20{opacity:0.9;fill:url(#SVGID_00000129892715225075923350000001990250057510496648_);}
	.st21{opacity:0.9;fill:url(#SVGID_00000098941329077822518010000016428336682675074221_);}
	.st22{opacity:0.9;fill:url(#SVGID_00000156563273465457898700000008226513395387992756_);}
	.st23{fill:url(#SVGID_00000114779385210214481300000012861594759175646594_);}
	.st24{fill:url(#SVGID_00000114791298735826199030000015467409009183390368_);}
	.st25{fill:url(#SVGID_00000139988772486575045030000014427084894538504892_);}
	.st26{fill:url(#SVGID_00000075866048731754514740000008036209929977560255_);}
	.st27{fill:url(#SVGID_00000125583564145021223420000009686699621169856654_);}
	.st28{fill:url(#SVGID_00000127025208993771623380000006583699833715389373_);}
	.st29{opacity:0.9;fill:url(#SVGID_00000099653113821049920370000017091465172231144834_);}
	.st30{opacity:0.9;fill:url(#SVGID_00000181047553006089562500000009845486714473953929_);}
	.st31{fill:url(#SVGID_00000043457573851327028640000003963713304959158413_);}
	.st32{fill:url(#SVGID_00000043432501337544471440000007846806232362304661_);}
</style>
<linearGradient id="SVGID_1_" gradientUnits="userSpaceOnUse" x1="204.0573" y1="8.133" x2="207.982" y2="915.9545">
	<stop  offset="0" style="stop-color:#5895D0"/>
	<stop  offset="1" style="stop-color:#5895D0"/>
</linearGradient>
<rect class="st0" width="412" height="915"/>
<linearGradient id="SVGID_00000005974878311188029860000008849532803521666735_" gradientUnits="userSpaceOnUse" x1="212.8737" y1="354.9234" x2="227.891" y2="252.1293">
	<stop  offset="0" style="stop-color:#010101"/>
	<stop  offset="0.1327" style="stop-color:#050505"/>
	<stop  offset="0.2652" style="stop-color:#111111"/>
	<stop  offset="0.3976" style="stop-color:#252525"/>
	<stop  offset="0.5303" style="stop-color:#414141"/>
	<stop  offset="0.6631" style="stop-color:#656565"/>
	<stop  offset="0.7959" style="stop-color:#929292"/>
	<stop  offset="0.9264" style="stop-color:#C5C5C5"/>
	<stop  offset="1" style="stop-color:#E6E6E6"/>
</linearGradient>
<path style="opacity:0.9;fill:url(#SVGID_00000005974878311188029860000008849532803521666735_);" d="M412,314.5v27
	c-2.1,3.5-5.7,5.6-9.6,5.8c-2.2,0.2-4.4-0.3-6.5-1.4c-1.3-0.7-2.5-1.7-3.4-2.8c-4.9,0.7-10.1,0.7-15.1-0.2c-7.5,5-19,6.6-28.9,3.5
	c-7.9,7.3-19.8,9.2-29.7,3.8c-0.7-0.3-1.3-0.7-1.9-1.1c-5.3,5.7-13.9,7.3-21,3.5c-2.7-1.5-4.9-3.5-6.4-6c-4,6.3-10.2,10.4-17.1,11.8
	c-1,0.2-2.1,0.4-3.2,0.5h0l-0.4,0c-4.8,0.3-9.6-0.7-14.1-3.1c-0.5-0.3-1-0.6-1.5-0.9h0c-1.2-0.8-2.4-1.7-3.5-2.6c0,0,0,0,0,0
	c-0.3-0.3-0.6-0.5-0.9-0.8c-1.3-1.3-2.5-2.8-3.6-4.3c-0.2,0.5-0.5,1.1-0.7,1.6c-0.4,0.8-1,1.6-1.5,2.3h0c-0.7,0.9-1.5,1.7-2.3,2.4
	c0,0,0,0-0.1,0c-4.8,4-11.7,4.8-17.6,1.7c-3.7-2-6.3-5.3-7.5-9c-0.1,0.1-0.1,0.3-0.2,0.4c-4.9,9.1-16.3,12.5-25.3,7.6
	c-3.2-1.7-5.6-4.2-7.3-7.1c-3.2,3.9-7.3,6.8-11.9,8.6c-0.8,0.3-1.5,0.6-2.3,0.8c-0.1,0-0.3,0.1-0.4,0.1c-3.1,0.9-6.3,1.2-9.5,1.1
	c-4.2-0.2-8.4-1.4-12.3-3.5c-3.1-1.7-5.7-3.8-7.9-6.3c-0.6-0.7-1.2-1.5-1.8-2.2c-0.3,0.5-0.6,0.9-0.9,1.4
	c-4.4,6.2-12.9,8.3-19.7,4.5c-3.5-1.9-6-5-7.2-8.6c-4.2,6-12,8.3-18.8,5.6c-0.6-0.2-1.1-0.5-1.7-0.8c-1.6-0.9-2.9-1.9-4.1-3.2
	c-4.5,2.5-10.1,2.7-15,0.1c-1.2-0.7-2.3-1.5-3.3-2.4c-3.5,1.3-7.6,1.3-11.2-0.4c-2.5-1.2-4.3-3-5.4-5.1c-1.4,0.7-3.1,1.1-5,1.1
	c-1.5,0-3-0.3-4.2-0.8c-1.4-0.5-2.6-1.3-3.4-2.3c-0.2,0-0.5,0-0.7,0c-9.2,0-16.6-1.4-16.6-3.2s7.4-3.2,16.6-3.2c0.2,0,0.5,0,0.7,0
	c1.6-1.8,4.4-3.1,7.6-3.1c0.9,0,1.8,0.1,2.6,0.3c0.1-0.3,0.2-0.6,0.4-0.9c1.4-2.7,4.4-3.9,7.3-3.4c1-0.5,2.1-0.9,3.2-1.1
	c-0.2-1.4,0-2.8,0.7-4.1c1.8-3.3,5.8-4.5,9.1-2.7c1.3,0.7,2.3,1.8,2.9,3.1c0.8-0.4,1.7-0.6,2.5-0.8c-0.3-1.5-0.1-3,0.7-4.4
	c1.8-3.3,5.8-4.5,9.1-2.7c0.3,0.2,0.6,0.4,0.9,0.6c5-8.3,15.8-11.3,24.4-6.7c0.1,0,0.2,0.1,0.2,0.1c1,0.5,1.9,1.2,2.7,1.9
	c3.4-3.3,8.2-4.7,12.8-3.7c0.2-1.1,0.5-2.2,0.8-3.2h0c0.4-1.1,0.9-2.2,1.4-3.3c4-7.4,11.6-11.5,19.5-11.4c0.6-2.7,1.5-5.5,2.9-8
	c7.7-14.2,25.4-19.5,39.7-11.9c2.4,1.3,4.4,2.9,6.3,4.6c0.2-0.4,0.4-0.9,0.6-1.3c5.6-10.4,18.6-14.2,28.9-8.7c4,2.2,7.1,5.5,9,9.3
	c6.8-5.7,16.6-7.1,24.9-2.6c6.3,3.4,10.3,9.5,11.4,16.1c4.1-2.4,9.2-2.8,13.7-0.4c4.6,2.5,7.2,7.2,7.2,12.1
	c7.9-7.4,19.9-9.3,29.9-3.9c5.7,3.1,9.8,8,11.9,13.7c3.9,0.1,7.8,1.1,11.5,3.1c1.5,0.8,2.8,1.7,4.1,2.7c2.3-3.6,6.9-4.8,10.7-2.8
	c3.1,1.7,4.7,5.2,4.1,8.5c1.8,0.1,3.6,0.4,5.4,0.8c0.1-0.2,0.1-0.3,0.2-0.5c3.2-5.9,10.5-8,16.4-4.9c3.5,1.9,5.7,5.3,6.2,9
	C393,312.4,403.4,312,412,314.5z"/>
<linearGradient id="SVGID_00000003803743066448927370000008649753032553688965_" gradientUnits="userSpaceOnUse" x1="152.41" y1="387.97" x2="152.41" y2="297.01">
	<stop  offset="0" style="stop-color:#010101"/>
	<stop  offset="0.1327" style="stop-color:#050505"/>
	<stop  offset="0.2652" style="stop-color:#111111"/>
	<stop  offset="0.3976" style="stop-color:#252525"/>
	<stop  offset="0.5303" style="stop-color:#414141"/>
	<stop  offset="0.6631" style="stop-color:#656565"/>
	<stop  offset="0.7959" style="stop-color:#929292"/>
	<stop  offset="0.9264" style="stop-color:#C5C5C5"/>
	<stop  offset="1" style="stop-color:#E6E6E6"/>
</linearGradient>
<path style="opacity:0.9;fill:url(#SVGID_00000003803743066448927370000008649753032553688965_);" d="M304.8,367
	c0,1.7-9.6,3.1-21.5,3.1h-0.7c-0.6,1.8-2.2,3.1-4.2,3.1c-1.3,0-2.5-0.6-3.3-1.5c-2.9,1.1-6.8,2-11.2,2.3c-1.3,4-10.3,8.4-16.6,1.4
	c-2.9,0.7-6.2,1.1-9.7,1.1c-2.7,0-5.3-0.2-7.7-0.7c-0.8,2-2.7,3.4-5,3.4c-1.4,0-2.6-0.5-3.6-1.3c-0.3,0.2-0.7,0.3-1,0.5
	c-1.2,0.5-2.5,0.7-3.9,0.7c-3.5,0-6.6-1.6-8.6-4c-1.4,4.7-5.7,8.1-10.8,8.1c-1.8,0-3.5-0.4-5-1.2c-2.1,1.4-4.6,2.2-7.3,2.2
	c-3.8,0-7.3-1.6-9.7-4.3c-2,4.8-6.7,8.1-12.2,8.1c-5.1,0-9.6-2.9-11.7-7.2c-2.1,2.7-5.4,4.4-9.1,4.4c-4.2,0-7.8-2.2-9.8-5.5
	c-2,2.1-4.9,3.5-8.1,3.5c-3.5,0-6.6-1.6-8.6-4.1c-4.1,2.7-9,4.3-14.2,4.3c-4.5,0-8.8-1.2-12.5-3.3c-3.6-2-6.6-4.8-8.9-8.2
	c-2.8,4.3-7.6,7.2-13.1,7.2c-3.8,0-7.3-1.4-10.1-3.7c-0.9-0.8-1.7-1.6-2.4-2.6c-1.2,2.7-3.5,4.8-6.2,5.8c0,0,0,0,0,0
	c-0.3,0.1-0.6,0.2-0.9,0.3c-1,0.3-2,0.4-3.1,0.4c-5.1,0-9.4-3.4-10.8-8.1c-2.1,2.5-5.2,4-8.6,4c-1.8,0-3.5-0.4-5-1.2
	c-0.9,0.8-2.2,1.4-3.5,1.4c-2.3,0-4.2-1.4-5-3.4c-2.4,0.4-5,0.7-7.7,0.7c-1.1,0-2.3,0-3.4-0.1v-28.4c3.6-0.9,7.2-1.3,10.3-1
	c1.3-3.9,4.9-6.7,9.2-6.7c2.8,0,5.4,1.2,7.1,3.1c1.3-0.5,2.7-0.8,4.1-0.8c1.9,0,3.7,0.5,5.2,1.3c0.9-1.4,2.3-2.5,3.9-3.1
	c0.8-0.3,1.8-0.5,2.7-0.5c0.3,0,0.6,0,1,0.1c2.4-6.8,8.8-11.7,16.4-11.7c3.5,0,6.7,1,9.4,2.8c0.9-4,4.5-7,8.8-7
	c1.2,0,2.2,0.2,3.3,0.6c0.5-7,6.3-12.5,13.4-12.5c3.5,0,6.7,1.4,9.1,3.6c0.3-3.8,1.8-7.2,4.2-9.8c3-3.4,7.5-5.5,12.4-5.5
	c1.4,0,2.7,0.2,4,0.5c7.2,1.8,12.5,8.1,12.6,15.8c1.6-0.7,3.4-1.1,5.2-1.1c6.2,0,11.5,4.2,13,10c0.7-0.3,1.5-0.4,2.4-0.4
	c3.7,0,6.6,3,6.6,6.6c0,0.5-0.1,1-0.2,1.5c5,0.5,9.2,3.4,11.4,7.7c1.5-0.8,3.1-1.2,4.9-1.2c1.5,0,2.9,0.3,4.2,0.9
	c3.3,1.5,5.8,4.6,6.2,8.3c1.1-3,4-5.2,7.5-5.2c2.8,0,5.2,1.4,6.6,3.6c1.6-0.8,3.3-1.3,5.2-1.3c5.3,0,9.8,3.7,10.9,8.7
	c1.3-0.6,2.8-0.9,4.4-0.9c2.5,0,4.8,0.8,6.7,2.2c1.1-0.6,2.3-0.9,3.6-0.9c1.8,0,3.3,0.6,4.6,1.6c0,0,0,0,0,0c0,0,0,0,0-0.1
	c0.5-1,1.3-1.9,2.3-2.4c0.8-0.4,1.6-0.6,2.5-0.6c1.2,0,2.4,0.4,3.3,1.1c0.3,0.2,0.6,0.5,0.9,0.8c0.7,0.9,1.2,2,1.3,3.2
	c0.7-0.3,1.4-0.5,2.2-0.5c0.2,0,0.4,0,0.6,0c2.1,0,3.9,0.8,5.2,2.2c1-1.4,2.6-2.3,4.5-2.3c2.6,0,4.8,1.8,5.3,4.2c0,0,0,0.1,0,0.1
	c0.1-0.1,0.2-0.1,0.4-0.2c0.7-0.3,1.5-0.5,2.3-0.5c0.3,0,0.6,0,0.9,0.1c1.5,0.2,2.7,1.1,3.6,2.2c1-0.8,2.2-1.3,3.6-1.3
	c2.8,0,5.1,2.1,5.4,4.7C296.1,364.1,304.8,365.4,304.8,367z"/>
<linearGradient id="SVGID_00000032633043074766623620000003342809047733648799_" gradientUnits="userSpaceOnUse" x1="147.4178" y1="421.85" x2="147.4178" y2="336.49">
	<stop  offset="0" style="stop-color:#010101"/>
	<stop  offset="0.1327" style="stop-color:#050505"/>
	<stop  offset="0.2652" style="stop-color:#111111"/>
	<stop  offset="0.3976" style="stop-color:#252525"/>
	<stop  offset="0.5303" style="stop-color:#414141"/>
	<stop  offset="0.6631" style="stop-color:#656565"/>
	<stop  offset="0.7959" style="stop-color:#929292"/>
	<stop  offset="0.9264" style="stop-color:#C5C5C5"/>
	<stop  offset="1" style="stop-color:#E6E6E6"/>
</linearGradient>
<path style="fill:url(#SVGID_00000032633043074766623620000003342809047733648799_);" d="M294.8,405.3c-0.2,1-3,1.3-6.7,0.9
	c-0.8,0.7-2.4,1.2-4.3,1.2c-1.7,0.1-3.2-0.2-4.1-0.7c-0.6,0.8-1.6,1.2-2.6,1.2c-0.9,0-1.6-0.3-2.2-0.8c-0.8,0.9-1.9,1.5-3.2,1.5
	c-1.1,0-2.1-0.4-2.9-1.1c-1,1.4-2.6,2.3-4.4,2.3c-1.6,0-3-0.7-4-1.8c-1.2,2.1-3.5,3.5-6.1,3.5c-1.6,0-3.1-0.6-4.3-1.5
	c-1.9,2-4.5,3.3-7.5,3.3c-1.7,0-3.3-0.4-4.7-1.1c-0.7-0.4-1.4-0.8-1.9-1.3c-0.9-0.7-1.6-1.6-2.2-2.6c-2.2,3.5-6.1,5.8-10.5,5.8
	c-3.4,0-6.5-1.4-8.8-3.7c-3,4-7.7,6.7-13.1,6.7c-3.8,0-7.4-1.3-10.1-3.6c-0.5,0.6-1.1,1.2-1.6,1.7c-4.4,4.2-10.4,6.8-16.9,6.8
	c-6.2,0-11.8-2.3-16.1-6c-2.6,3-6.5,4.9-10.8,4.9c-5.1,0-9.6-2.7-12.2-6.8c-4.1,4.2-9.8,6.8-16.2,6.8c-8.2,0-15.4-4.4-19.4-10.9
	c-2.3,4.3-6.8,7.2-12,7.2c-1,0-2-0.1-3-0.3c-4.5-1-8.1-4.2-9.8-8.5c-1.7,5.5-6.9,9.5-13,9.5c-5.7,0-10.5-3.4-12.5-8.4
	c-2.8,3.5-7.2,5.7-12,5.7c-6,0-11.2-3.4-13.8-8.4c-1.2,1.8-3.2,2.9-5.5,2.9c-2.1,0-4-1-5.2-2.5c-1,1.1-2.5,1.8-4,1.8
	c-0.9,0-1.8-0.2-2.6-0.7c-0.7,0.5-1.5,0.7-2.3,0.7c-0.9,0-1.7-0.3-2.4-0.7v-7c0.7-0.5,1.5-0.7,2.4-0.7c0.1,0,0.1,0,0.2,0
	c0.8-1.3,2.1-2.3,3.7-2.6c0.6-2,2.5-3.5,4.7-3.5c0.7,0,1.4,0.2,2,0.4c0.8-2.6,3.1-4.5,5.9-4.7c0.2,0,0.3,0,0.5,0
	c1.4,0,2.6,0.4,3.7,1.1c2.8-4.2,7.5-7,12.9-7c1.5,0,3,0.2,4.4,0.6c1.5-2.7,4-4.8,6.9-5.8c0,0,0,0,0,0h0c0.3-0.1,0.6-0.2,0.9-0.3
	c0,0,0,0,0,0c1.2-0.3,2.4-0.5,3.6-0.5c1.5,0,3,0.3,4.3,0.7c0.1-1.2,0.4-2.3,0.7-3.4c2.7-9.5,11.4-16.6,21.8-16.6
	c2.2,0,4.3,0.3,6.3,0.9c0.9-4.2,2.6-8,5-11.3c5.3-7.2,13.8-11.9,23.5-11.9c8.9,0,16.9,4,22.3,10.4c0.5,0.6,1,1.2,1.4,1.8
	c0.4-0.3,0.8-0.7,1.3-1c3.6-2.6,8.1-4.1,12.8-4.1c7.5,0,14.2,3.7,18.2,9.4c0.6,0.8,1.1,1.6,1.5,2.4c1.4,2.6,2.2,5.4,2.5,8.4
	c2.3-2.5,5.5-4,9.2-4c6.4,0,11.7,4.9,12.4,11.1c2.8-2,6.2-3.2,9.9-3.2c7.1,0,13.1,4.3,15.7,10.5c0.3,0.7,0.5,1.3,0.7,2.1
	c0.5-0.1,1-0.2,1.5-0.2c4,0,7.2,3.2,7.2,7.2c0,0.1,0,0.1,0,0.2c0.5-0.1,1-0.2,1.5-0.2c3.7,0,6.7,2.7,7.1,6.2
	c1.3-0.6,2.7-0.9,4.1-0.9c2.3,0,4.4,0.8,6.1,2.1c1.3-1.1,2.9-1.8,4.7-1.8c2.7,0,5,1.5,6.2,3.7c0.5-0.2,1-0.4,1.6-0.4
	c1.7,0,3.1,1.1,3.6,2.6c1.6,0.1,3,1,3.9,2.2c0.8-0.7,1.8-1.2,2.9-1.2c1.2,0,2.3,0.5,3.1,1.4c0.4-1.2,2-2,3.9-1.8
	c1.9,0.2,3.4,1.2,3.6,2.4c1.4-0.1,3.2,0,5.1,0.3C291.7,402.9,295,404.2,294.8,405.3z"/>
<linearGradient id="SVGID_00000176007916436046281930000012540652081958757517_" gradientUnits="userSpaceOnUse" x1="229.69" y1="423.8198" x2="229.69" y2="303.6256">
	<stop  offset="0" style="stop-color:#010101"/>
	<stop  offset="0.1327" style="stop-color:#050505"/>
	<stop  offset="0.2652" style="stop-color:#111111"/>
	<stop  offset="0.3976" style="stop-color:#252525"/>
	<stop  offset="0.5303" style="stop-color:#414141"/>
	<stop  offset="0.6631" style="stop-color:#656565"/>
	<stop  offset="0.7959" style="stop-color:#929292"/>
	<stop  offset="0.9264" style="stop-color:#C5C5C5"/>
	<stop  offset="1" style="stop-color:#E6E6E6"/>
</linearGradient>
<path style="fill:url(#SVGID_00000176007916436046281930000012540652081958757517_);" d="M412,358.1v59.1c-6,0.8-12.2-0.2-18-3.3
	c-0.8-0.4-1.5-0.9-2.2-1.3c-6.1,6.6-16,8.5-24.3,4c-3.1-1.7-5.6-4.1-7.4-6.9c-8.5,13.5-26.1,18.2-40.3,10.5c-4.6-2.5-8.3-6-11-10.1
	c-0.2,0.6-0.5,1.2-0.9,1.8c-4.8,8.9-15.9,12.2-24.8,7.4c-4.3-2.3-7.3-6.1-8.7-10.4c-0.1,0.1-0.1,0.3-0.2,0.5
	c-5.7,10.5-18.8,14.5-29.3,8.8c-2.9-1.6-5.3-3.7-7.1-6.2c-0.5-0.7-0.9-1.3-1.3-2c-0.2,0.2-0.4,0.5-0.6,0.7
	c-10.2,11.7-27.4,15.2-41.6,7.5c-1.7-0.9-3.3-2-4.8-3.1c-2.5-2-4.6-4.2-6.4-6.7c-4.8,8.3-15.3,11.4-23.9,6.8c-4.1-2.2-7-5.8-8.4-9.9
	c-5.3,7.5-15.4,10-23.6,5.5c-1.8-1-3.4-2.2-4.7-3.6c-5.2,2.9-11.7,3.1-17.3,0.1c-1.4-0.8-2.7-1.7-3.8-2.8c-4.1,1.5-8.8,1.5-13-0.5
	c-2.8-1.4-5-3.5-6.3-5.9c-1.6,0.8-3.6,1.2-5.8,1.2c-3.8,0-7.1-1.4-8.8-3.6c-0.3,0-0.5,0-0.8,0c-10.6,0-19.2-1.7-19.2-3.7
	c0-2,8.6-3.7,19.2-3.7h0.8c1.8-2.1,5.1-3.6,8.8-3.6c1.1,0,2.1,0.2,3,0.4c0.1-0.3,0.2-0.7,0.4-1c1.7-3.1,5.1-4.6,8.4-3.9
	c0.2-0.1,0.4-0.2,0.5-0.2c1-0.4,2.1-0.8,3.2-1c-0.2-1.6,0-3.2,0.8-4.8c2-3.8,6.8-5.2,10.5-3.1c1.5,0.8,2.7,2.1,3.3,3.6
	c1-0.4,1.9-0.7,2.9-1c-0.3-1.7-0.1-3.5,0.8-5.1c2-3.8,6.8-5.2,10.5-3.2c0.4,0.2,0.7,0.4,1,0.7c5.8-9.6,18.2-13.1,28.3-7.7
	c1.2,0.7,2.4,1.4,3.4,2.3c1.5-1.4,3.1-2.5,4.9-3.3c3-1.3,6.3-1.7,9.5-1.1c0.1,0,0.2,0,0.3,0.1c0-0.1,0-0.1,0-0.2
	c0.2-1.1,0.5-2.2,0.8-3.3c0.5-1.4,1-2.7,1.8-4.1c3.1-5.7,8.1-9.8,13.8-11.8c2.8-1,5.8-1.5,8.8-1.4c0.7-3.2,1.8-6.3,3.4-9.3
	c8.9-16.5,29.4-22.6,45.9-13.7c2.7,1.5,5.2,3.3,7.3,5.3c0.2-0.5,0.5-1,0.7-1.5c6.5-12,21.5-16.5,33.5-10c4.7,2.5,8.2,6.3,10.4,10.8
	c7.8-6.6,19.2-8.2,28.8-3c7.3,4,12,11,13.2,18.6c4.7-2.8,10.7-3.2,15.9-0.4c5.4,2.9,8.3,8.4,8.4,14c9.1-8.6,23-10.8,34.6-4.5
	c2.7,1.4,5,3.2,7.1,5.3c3,3,5.2,6.6,6.7,10.5C410,357.9,411,358,412,358.1z"/>
<linearGradient id="SVGID_00000108277000479252866910000015500297521387100591_" gradientUnits="userSpaceOnUse" x1="-5.6389" y1="471.2082" x2="-5.2733" y2="468.7063">
	<stop  offset="0" style="stop-color:#010101"/>
	<stop  offset="0.1327" style="stop-color:#050505"/>
	<stop  offset="0.2652" style="stop-color:#111111"/>
	<stop  offset="0.3976" style="stop-color:#252525"/>
	<stop  offset="0.5303" style="stop-color:#414141"/>
	<stop  offset="0.6631" style="stop-color:#656565"/>
	<stop  offset="0.7959" style="stop-color:#929292"/>
	<stop  offset="0.9264" style="stop-color:#C5C5C5"/>
	<stop  offset="1" style="stop-color:#E6E6E6"/>
</linearGradient>
<path style="opacity:0.9;fill:url(#SVGID_00000108277000479252866910000015500297521387100591_);" d="M-4.3,469
	c-0.7,0.9-1.5,1.7-2.3,2.4C-6.1,470.3-5.3,469.5-4.3,469z"/>
<linearGradient id="SVGID_00000023250150580351448460000011807985013678092965_" gradientUnits="userSpaceOnUse" x1="97.4404" y1="478.5099" x2="110.143" y2="391.5602">
	<stop  offset="0" style="stop-color:#010101"/>
	<stop  offset="0.1327" style="stop-color:#050505"/>
	<stop  offset="0.2652" style="stop-color:#111111"/>
	<stop  offset="0.3976" style="stop-color:#252525"/>
	<stop  offset="0.5303" style="stop-color:#414141"/>
	<stop  offset="0.6631" style="stop-color:#656565"/>
	<stop  offset="0.7959" style="stop-color:#929292"/>
	<stop  offset="0.9264" style="stop-color:#C5C5C5"/>
	<stop  offset="1" style="stop-color:#E6E6E6"/>
</linearGradient>
<path style="opacity:0.9;fill:url(#SVGID_00000023250150580351448460000011807985013678092965_);" d="M210.4,452.5
	c-5.5,2-16.8,3-27.6,2.6c-4.1,2.2-10.6,3.6-17.6,3.9c0,0.1,0,0.1-0.1,0.2c-2,3.8-5.8,6.1-9.9,6.3c-2.2,0.2-4.4-0.3-6.5-1.4
	c-1.3-0.7-2.5-1.7-3.4-2.8c-4.9,0.7-10.1,0.6-15.2-0.2c-7.5,5-19,6.6-28.9,3.5c-7.9,7.3-19.8,9.2-29.7,3.8c-0.7-0.3-1.3-0.7-1.9-1.1
	c-5.3,5.7-13.9,7.3-21,3.5c-2.7-1.5-4.9-3.5-6.4-6c-4,6.3-10.2,10.4-17.1,11.8c-1,0.2-2.1,0.4-3.2,0.5c-0.1,0-0.3,0-0.4,0
	c-4.8,0.3-9.6-0.7-14.1-3.1c-0.5-0.3-1-0.6-1.6-0.9c-1.2-0.8-2.4-1.7-3.5-2.6c-0.3-0.3-0.7-0.6-1-0.9c-0.5-0.5-1-1-1.4-1.5v-88.1
	c3.6,0,7.2,0.9,10.5,2.7c3.5,1.9,6.2,4.5,8.2,7.6c1.6,2.6,2.7,5.5,3.2,8.5c4.1-2.4,9.2-2.8,13.7-0.4c4.6,2.5,7.2,7.2,7.2,12.1
	c7.9-7.4,19.9-9.3,29.9-3.9c4.6,2.5,8.1,6.1,10.4,10.3c0.6,1.1,1.1,2.2,1.5,3.3c3.9,0.1,7.8,1.1,11.5,3.1c1.5,0.8,2.8,1.7,4.1,2.8
	c2.3-3.6,6.9-4.8,10.7-2.8c3.2,1.7,4.7,5.2,4.1,8.5c1.8,0.1,3.6,0.4,5.4,0.8c0.1-0.2,0.1-0.3,0.2-0.5c3.2-5.9,10.5-8.1,16.3-4.9
	c3.5,1.9,5.7,5.3,6.2,9c4.9-9.6,33.5-3.7,34.2,6.6c1.6-3,5.3-4.1,8.3-2.5c1.9,1,3,2.9,3.2,4.9c3.8,0,7.6,0.2,11.2,0.6
	C212.5,447,217.1,450,210.4,452.5z"/>
<linearGradient id="SVGID_00000076580943145348151920000007571251218835072155_" gradientUnits="userSpaceOnUse" x1="-110.34" y1="466.79" x2="-110.34" y2="463.62">
	<stop  offset="0" style="stop-color:#010101"/>
	<stop  offset="0.1327" style="stop-color:#050505"/>
	<stop  offset="0.2652" style="stop-color:#111111"/>
	<stop  offset="0.3976" style="stop-color:#252525"/>
	<stop  offset="0.5303" style="stop-color:#414141"/>
	<stop  offset="0.6631" style="stop-color:#656565"/>
	<stop  offset="0.7959" style="stop-color:#929292"/>
	<stop  offset="0.9264" style="stop-color:#C5C5C5"/>
	<stop  offset="1" style="stop-color:#E6E6E6"/>
</linearGradient>
<path style="opacity:0.9;fill:url(#SVGID_00000076580943145348151920000007571251218835072155_);" d="M-109,465.8
	c-0.4,0.3-0.9,0.6-1.3,1c-0.4-0.6-0.9-1.2-1.4-1.8c0.3-0.4,0.6-0.9,0.9-1.4C-110.2,464.4-109.6,465.1-109,465.8z"/>
<linearGradient id="SVGID_00000010270034627119521460000008161509350386582454_" gradientUnits="userSpaceOnUse" x1="-79.035" y1="474.61" x2="-79.035" y2="474.43">
	<stop  offset="0" style="stop-color:#010101"/>
	<stop  offset="0.1327" style="stop-color:#050505"/>
	<stop  offset="0.2652" style="stop-color:#111111"/>
	<stop  offset="0.3976" style="stop-color:#252525"/>
	<stop  offset="0.5303" style="stop-color:#414141"/>
	<stop  offset="0.6631" style="stop-color:#656565"/>
	<stop  offset="0.7959" style="stop-color:#929292"/>
	<stop  offset="0.9264" style="stop-color:#C5C5C5"/>
	<stop  offset="1" style="stop-color:#E6E6E6"/>
</linearGradient>
<path style="opacity:0.9;fill:url(#SVGID_00000010270034627119521460000008161509350386582454_);" d="M-79.2,474.5
	c0.1,0,0.3-0.1,0.4-0.1c0,0.1,0,0.1,0,0.2C-79,474.6-79.1,474.6-79.2,474.5z"/>
<linearGradient id="SVGID_00000067194215710378403400000017934897841368298904_" gradientUnits="userSpaceOnUse" x1="-5.485" y1="471.35" x2="-5.485" y2="468.96">
	<stop  offset="0" style="stop-color:#010101"/>
	<stop  offset="0.1327" style="stop-color:#050505"/>
	<stop  offset="0.2652" style="stop-color:#111111"/>
	<stop  offset="0.3976" style="stop-color:#252525"/>
	<stop  offset="0.5303" style="stop-color:#414141"/>
	<stop  offset="0.6631" style="stop-color:#656565"/>
	<stop  offset="0.7959" style="stop-color:#929292"/>
	<stop  offset="0.9264" style="stop-color:#C5C5C5"/>
	<stop  offset="1" style="stop-color:#E6E6E6"/>
</linearGradient>
<path style="opacity:0.9;fill:url(#SVGID_00000067194215710378403400000017934897841368298904_);" d="M-4.3,469
	c-0.7,0.9-1.5,1.7-2.3,2.4C-6.1,470.3-5.3,469.5-4.3,469z"/>
<linearGradient id="SVGID_00000035488466337999264080000012469044567885133457_" gradientUnits="userSpaceOnUse" x1="28.83" y1="497.1613" x2="28.83" y2="468.61">
	<stop  offset="0" style="stop-color:#010101"/>
	<stop  offset="0.1327" style="stop-color:#050505"/>
	<stop  offset="0.2652" style="stop-color:#111111"/>
	<stop  offset="0.3976" style="stop-color:#252525"/>
	<stop  offset="0.5303" style="stop-color:#414141"/>
	<stop  offset="0.6631" style="stop-color:#656565"/>
	<stop  offset="0.7959" style="stop-color:#929292"/>
	<stop  offset="0.9264" style="stop-color:#C5C5C5"/>
	<stop  offset="1" style="stop-color:#E6E6E6"/>
</linearGradient>
<path style="opacity:0.9;fill:url(#SVGID_00000035488466337999264080000012469044567885133457_);" d="M57.7,485.1
	c0,1.7-9.6,3.1-21.5,3.1h-0.7c-0.6,1.8-2.2,3.1-4.2,3.1c-1.3,0-2.5-0.6-3.3-1.5c-2.9,1.1-6.8,1.9-11.2,2.3c-1.3,4-10.3,8.4-16.6,1.4
	c0,0-0.1,0-0.1,0v-24.9c0.5,0.2,1,0.4,1.4,0.7c0.4,0.3,0.7,0.6,1,0.9c0.7,0.9,1.2,2,1.3,3.2c0.7-0.3,1.4-0.5,2.2-0.5
	c0.2,0,0.4,0,0.6,0c2,0,3.9,0.8,5.2,2.2c1-1.4,2.6-2.3,4.5-2.3c2.6,0,4.8,1.8,5.3,4.2c0,0,0,0.1,0,0.2c0.1-0.1,0.2-0.1,0.3-0.2
	c0.7-0.3,1.5-0.5,2.3-0.5c0.3,0,0.6,0,0.9,0.1c1.5,0.2,2.8,1.1,3.6,2.2c1-0.8,2.2-1.3,3.6-1.3c2.8,0,5.1,2.1,5.4,4.7
	C48.9,482.2,57.7,483.5,57.7,485.1z"/>
<linearGradient id="SVGID_00000111159926282144206310000006244759519883454861_" gradientUnits="userSpaceOnUse" x1="-79.035" y1="474.61" x2="-79.035" y2="474.43">
	<stop  offset="0" style="stop-color:#010101"/>
	<stop  offset="0.1327" style="stop-color:#050505"/>
	<stop  offset="0.2652" style="stop-color:#111111"/>
	<stop  offset="0.3976" style="stop-color:#252525"/>
	<stop  offset="0.5303" style="stop-color:#414141"/>
	<stop  offset="0.6631" style="stop-color:#656565"/>
	<stop  offset="0.7959" style="stop-color:#929292"/>
	<stop  offset="0.9264" style="stop-color:#C5C5C5"/>
	<stop  offset="1" style="stop-color:#E6E6E6"/>
</linearGradient>
<path style="fill:url(#SVGID_00000111159926282144206310000006244759519883454861_);" d="M-79.2,474.5c0.1,0,0.3-0.1,0.4-0.1
	c0,0.1,0,0.1,0,0.2C-79,474.6-79.1,474.6-79.2,474.5z"/>
<linearGradient id="SVGID_00000082344679113525420180000005094870735431196825_" gradientUnits="userSpaceOnUse" x1="-10.345" y1="530.11" x2="-10.345" y2="528.08">
	<stop  offset="0" style="stop-color:#010101"/>
	<stop  offset="0.1327" style="stop-color:#050505"/>
	<stop  offset="0.2652" style="stop-color:#111111"/>
	<stop  offset="0.3976" style="stop-color:#252525"/>
	<stop  offset="0.5303" style="stop-color:#414141"/>
	<stop  offset="0.6631" style="stop-color:#656565"/>
	<stop  offset="0.7959" style="stop-color:#929292"/>
	<stop  offset="0.9264" style="stop-color:#C5C5C5"/>
	<stop  offset="1" style="stop-color:#E6E6E6"/>
</linearGradient>
<path style="fill:url(#SVGID_00000082344679113525420180000005094870735431196825_);" d="M-10.7,528.1c0.4,0.7,0.8,1.4,1.3,2
	c-0.7-0.4-1.3-0.8-1.9-1.3C-11.1,528.6-10.9,528.3-10.7,528.1z"/>
<linearGradient id="SVGID_00000138538496913785208810000009321111961678801557_" gradientUnits="userSpaceOnUse" x1="23.8328" y1="530.12" x2="23.8328" y2="511.15">
	<stop  offset="0" style="stop-color:#010101"/>
	<stop  offset="0.1327" style="stop-color:#050505"/>
	<stop  offset="0.2652" style="stop-color:#111111"/>
	<stop  offset="0.3976" style="stop-color:#252525"/>
	<stop  offset="0.5303" style="stop-color:#414141"/>
	<stop  offset="0.6631" style="stop-color:#656565"/>
	<stop  offset="0.7959" style="stop-color:#929292"/>
	<stop  offset="0.9264" style="stop-color:#C5C5C5"/>
	<stop  offset="1" style="stop-color:#E6E6E6"/>
</linearGradient>
<path style="fill:url(#SVGID_00000138538496913785208810000009321111961678801557_);" d="M47.7,523.4c-0.1,0.9-3,1.3-6.7,0.9
	c-0.8,0.7-2.4,1.2-4.3,1.2c-1.7,0.1-3.2-0.2-4.1-0.7c-0.6,0.8-1.5,1.2-2.6,1.2c-0.9,0-1.6-0.3-2.2-0.9c-0.8,0.9-1.9,1.5-3.2,1.5
	c-1.1,0-2.1-0.4-2.9-1.1c-1,1.4-2.6,2.3-4.4,2.3c-1.6,0-3-0.7-4-1.8c-1.2,2.1-3.5,3.5-6.1,3.5c-1.6,0-3.1-0.6-4.3-1.5
	c-0.8,0.9-1.7,1.6-2.8,2.1V512c0.5,0.3,1,0.6,1.5,0.9c1.3-1.1,2.9-1.8,4.7-1.8c2.7,0,5,1.5,6.2,3.7c0.5-0.2,1-0.4,1.6-0.4
	c1.7,0,3.1,1.1,3.6,2.6c1.6,0.1,3,1,3.9,2.2c0.8-0.7,1.8-1.1,2.9-1.1c1.2,0,2.3,0.5,3.1,1.3c0.4-1.2,2-2,3.9-1.8
	c1.9,0.1,3.4,1.2,3.6,2.4c1.4-0.1,3.2,0,5.1,0.3C44.5,521,47.8,522.3,47.7,523.4z"/>
<linearGradient id="SVGID_00000118358696433040550060000003581833683337962924_" gradientUnits="userSpaceOnUse" x1="-6.685" y1="471.43" x2="-6.685" y2="471.35">
	<stop  offset="0" style="stop-color:#010101"/>
	<stop  offset="0.1327" style="stop-color:#050505"/>
	<stop  offset="0.2652" style="stop-color:#111111"/>
	<stop  offset="0.3976" style="stop-color:#252525"/>
	<stop  offset="0.5303" style="stop-color:#414141"/>
	<stop  offset="0.6631" style="stop-color:#656565"/>
	<stop  offset="0.7959" style="stop-color:#929292"/>
	<stop  offset="0.9264" style="stop-color:#C5C5C5"/>
	<stop  offset="1" style="stop-color:#E6E6E6"/>
</linearGradient>
<path style="fill:url(#SVGID_00000118358696433040550060000003581833683337962924_);" d="M-6.7,471.4
	C-6.7,471.4-6.7,471.4-6.7,471.4C-6.7,471.4-6.7,471.4-6.7,471.4C-6.7,471.4-6.7,471.4-6.7,471.4z"/>
<linearGradient id="SVGID_00000155839016974089180430000016461363051567483557_" gradientUnits="userSpaceOnUse" x1="-5.485" y1="471.35" x2="-5.485" y2="468.96">
	<stop  offset="0" style="stop-color:#010101"/>
	<stop  offset="0.1327" style="stop-color:#050505"/>
	<stop  offset="0.2652" style="stop-color:#111111"/>
	<stop  offset="0.3976" style="stop-color:#252525"/>
	<stop  offset="0.5303" style="stop-color:#414141"/>
	<stop  offset="0.6631" style="stop-color:#656565"/>
	<stop  offset="0.7959" style="stop-color:#929292"/>
	<stop  offset="0.9264" style="stop-color:#C5C5C5"/>
	<stop  offset="1" style="stop-color:#E6E6E6"/>
</linearGradient>
<path style="fill:url(#SVGID_00000155839016974089180430000016461363051567483557_);" d="M-4.3,469c-0.7,0.9-1.5,1.7-2.3,2.4
	C-6.1,470.3-5.3,469.5-4.3,469z"/>
<linearGradient id="SVGID_00000037678686635049253570000004109944455183944614_" gradientUnits="userSpaceOnUse" x1="155.504" y1="541.9199" x2="155.504" y2="421.7253">
	<stop  offset="0" style="stop-color:#010101"/>
	<stop  offset="0.1327" style="stop-color:#050505"/>
	<stop  offset="0.2652" style="stop-color:#111111"/>
	<stop  offset="0.3976" style="stop-color:#252525"/>
	<stop  offset="0.5303" style="stop-color:#414141"/>
	<stop  offset="0.6631" style="stop-color:#656565"/>
	<stop  offset="0.7959" style="stop-color:#929292"/>
	<stop  offset="0.9264" style="stop-color:#C5C5C5"/>
	<stop  offset="1" style="stop-color:#E6E6E6"/>
</linearGradient>
<path style="fill:url(#SVGID_00000037678686635049253570000004109944455183944614_);" d="M307.4,513.6c-1.9,0.7-4.3,1.3-7.2,1.7
	c-6.8,1.1-16,1.6-24.8,1.2c-1.8,0.9-3.9,1.8-6.3,2.4h0c-0.9,0.2-1.7,0.5-2.7,0.7c-3.5,0.8-7.3,1.3-11.4,1.5c0,0.1,0,0.1-0.1,0.2
	c-1.9,3.4-5,5.8-8.4,6.8c-3.4,1-7.2,0.7-10.5-1.1c-1.5-0.8-2.9-1.9-3.9-3.2c-2.8,0.4-5.6,0.6-8.5,0.6c-3,0-6-0.3-9-0.8
	c-8.6,5.8-21.9,7.6-33.4,4c-9.1,8.4-22.9,10.6-34.4,4.4c-0.8-0.4-1.5-0.9-2.2-1.3c-6.1,6.6-16,8.5-24.3,4c-3.1-1.7-5.6-4.1-7.4-6.9
	c-8.5,13.4-26.1,18.2-40.3,10.5c-4.6-2.5-8.3-6-11-10.1c-0.2,0.6-0.5,1.2-0.9,1.8c-4.8,8.9-15.9,12.2-24.8,7.4
	c-4.3-2.3-7.3-6.1-8.7-10.4c-0.1,0.2-0.1,0.3-0.2,0.5c-5.3,9.8-17,13.9-27,9.8V433.8c1,0.8,1.9,1.6,2.8,2.4c0.2-0.5,0.5-1,0.7-1.5
	c6.5-12,21.5-16.5,33.5-10c4.7,2.5,8.2,6.3,10.4,10.8c7.8-6.6,19.2-8.2,28.8-3c7.3,4,11.9,11,13.2,18.6c4.7-2.8,10.7-3.2,15.9-0.4
	c5.3,2.9,8.3,8.4,8.3,14c9.1-8.6,23-10.8,34.6-4.5c2.7,1.4,5,3.2,7.1,5.3c3,3,5.2,6.6,6.7,10.5c4.5,0.1,9,1.2,13.2,3.5
	c1.7,0.9,3.3,2,4.7,3.2c2.6-4.1,8-5.6,12.3-3.2c3.7,2,5.4,6,4.8,9.9c2.1,0.2,4.2,0.5,6.3,1c0.1-0.2,0.1-0.4,0.2-0.6
	c3.7-6.8,12.1-9.3,18.9-5.7c4.1,2.2,6.6,6.2,7.2,10.5c5.7-11.2,38.7-4.3,39.5,7.6c1.9-3.4,6.2-4.7,9.6-2.9c2.2,1.2,3.5,3.4,3.7,5.7
	c2.5,0,5,0.1,7.4,0.2c1.9,0.1,3.8,0.3,5.6,0.4C309.8,507.2,315.2,510.7,307.4,513.6z"/>
<linearGradient id="SVGID_00000013156687758107515020000017355279186496588468_" gradientUnits="userSpaceOnUse" x1="297.6025" y1="552.2243" x2="312.6197" y2="449.4311">
	<stop  offset="0" style="stop-color:#010101"/>
	<stop  offset="0.1327" style="stop-color:#050505"/>
	<stop  offset="0.2652" style="stop-color:#111111"/>
	<stop  offset="0.3976" style="stop-color:#252525"/>
	<stop  offset="0.5303" style="stop-color:#414141"/>
	<stop  offset="0.6631" style="stop-color:#656565"/>
	<stop  offset="0.7959" style="stop-color:#929292"/>
	<stop  offset="0.9264" style="stop-color:#C5C5C5"/>
	<stop  offset="1" style="stop-color:#E6E6E6"/>
</linearGradient>
<path style="opacity:0.9;fill:url(#SVGID_00000013156687758107515020000017355279186496588468_);" d="M397.6,475.9
	c4-3.4,9.1-5.3,14.4-5.3v88.1c-0.8-0.9-1.4-1.8-2-2.7c-0.2,0.5-0.5,1.1-0.8,1.6c-0.4,0.8-1,1.6-1.5,2.3c-0.7,0.9-1.5,1.7-2.3,2.4
	c0,0,0,0-0.1,0c-4.8,4-11.7,4.8-17.6,1.7c-3.7-2-6.3-5.3-7.5-9c-0.1,0.1-0.1,0.3-0.2,0.4c-4.9,9.1-16.3,12.5-25.4,7.6
	c-3.2-1.7-5.6-4.2-7.3-7.1c-3.2,3.9-7.4,6.8-11.9,8.6c-0.8,0.3-1.6,0.6-2.4,0.8c-0.1,0-0.3,0.1-0.4,0.1c-3.1,0.9-6.3,1.2-9.6,1.1
	c-4.2-0.2-8.4-1.4-12.3-3.5c-3.1-1.7-5.7-3.8-7.9-6.3c-0.6-0.7-1.2-1.5-1.8-2.2c-0.3,0.5-0.6,0.9-0.9,1.4
	c-4.4,6.2-12.9,8.2-19.7,4.5c-3.6-1.9-6-5-7.2-8.6c-4.2,6-12,8.3-18.8,5.5c-0.6-0.2-1.1-0.5-1.7-0.8c-1.6-0.8-2.9-1.9-4.1-3.1
	c-4.5,2.5-10.1,2.7-15,0.1c-1.2-0.7-2.3-1.5-3.3-2.4c-3.5,1.3-7.6,1.3-11.2-0.4c-2.5-1.2-4.3-3-5.4-5.1c-1.4,0.7-3.1,1.1-5,1.1
	c-1.5,0-3-0.3-4.3-0.8c-1.4-0.5-2.6-1.3-3.4-2.3c-0.2,0-0.5,0-0.7,0c-9.2,0-16.6-1.4-16.6-3.2c0-1.8,7.4-3.2,16.6-3.2h0.7
	c1.5-1.8,4.4-3.1,7.6-3.1c0.9,0,1.8,0.1,2.6,0.3c0.1-0.3,0.2-0.6,0.4-0.9c1.5-2.7,4.5-3.9,7.3-3.3c1-0.5,2.1-0.9,3.2-1.1
	c-0.2-1.4,0-2.8,0.7-4.1c0.2-0.3,0.3-0.5,0.5-0.8c2-2.7,5.6-3.6,8.6-2c1.3,0.7,2.3,1.8,2.9,3.1c0.8-0.3,1.7-0.6,2.5-0.8
	c-0.3-1.5-0.1-3,0.7-4.4c1.8-3.3,5.8-4.5,9.1-2.7c0.3,0.2,0.6,0.4,0.9,0.6c5-8.3,15.8-11.3,24.4-6.7c0.1,0,0.1,0.1,0.2,0.1
	c1,0.5,1.9,1.1,2.7,1.8c3.4-3.3,8.2-4.7,12.8-3.7c0.2-1.1,0.5-2.1,0.8-3.2c0.2-0.4,0.3-0.9,0.5-1.3c0.3-0.7,0.6-1.3,0.9-2
	c4-7.4,11.6-11.5,19.5-11.4c0.6-2.7,1.5-5.4,2.9-8c7.7-14.2,25.4-19.5,39.7-11.9c2.4,1.3,4.5,2.8,6.3,4.6c0.2-0.4,0.4-0.9,0.6-1.3
	c5.6-10.4,18.5-14.2,28.9-8.7C392.7,468.7,395.7,472,397.6,475.9z"/>
<linearGradient id="SVGID_00000137829413213129660240000006327592514920980156_" gradientUnits="userSpaceOnUse" x1="413.8864" y1="561.0085" x2="413.99" y2="560.2994">
	<stop  offset="0" style="stop-color:#010101"/>
	<stop  offset="0.1327" style="stop-color:#050505"/>
	<stop  offset="0.2652" style="stop-color:#111111"/>
	<stop  offset="0.3976" style="stop-color:#252525"/>
	<stop  offset="0.5303" style="stop-color:#414141"/>
	<stop  offset="0.6631" style="stop-color:#656565"/>
	<stop  offset="0.7959" style="stop-color:#929292"/>
	<stop  offset="0.9264" style="stop-color:#C5C5C5"/>
	<stop  offset="1" style="stop-color:#E6E6E6"/>
</linearGradient>
<path style="opacity:0.9;fill:url(#SVGID_00000137829413213129660240000006327592514920980156_);" d="M414.4,561.2
	c-0.3-0.3-0.7-0.6-1-0.9C413.8,560.5,414.1,560.8,414.4,561.2z"/>
<linearGradient id="SVGID_00000160180252736488338750000017248695303076123812_" gradientUnits="userSpaceOnUse" x1="435.5432" y1="567.9293" x2="435.6664" y2="567.0859">
	<stop  offset="0" style="stop-color:#010101"/>
	<stop  offset="0.1327" style="stop-color:#050505"/>
	<stop  offset="0.2652" style="stop-color:#111111"/>
	<stop  offset="0.3976" style="stop-color:#252525"/>
	<stop  offset="0.5303" style="stop-color:#414141"/>
	<stop  offset="0.6631" style="stop-color:#656565"/>
	<stop  offset="0.7959" style="stop-color:#929292"/>
	<stop  offset="0.9264" style="stop-color:#C5C5C5"/>
	<stop  offset="1" style="stop-color:#E6E6E6"/>
</linearGradient>
<path style="opacity:0.9;fill:url(#SVGID_00000160180252736488338750000017248695303076123812_);" d="M437.2,567.3
	c-1.1,0.2-2.1,0.4-3.2,0.5c0.7-0.3,1.5-0.5,2.3-0.5C436.6,567.3,436.9,567.3,437.2,567.3z"/>
<linearGradient id="SVGID_00000018200671611038832390000007715595590879469503_" gradientUnits="userSpaceOnUse" x1="256.495" y1="596.97" x2="256.495" y2="506.02">
	<stop  offset="0" style="stop-color:#010101"/>
	<stop  offset="0.1327" style="stop-color:#050505"/>
	<stop  offset="0.2652" style="stop-color:#111111"/>
	<stop  offset="0.3976" style="stop-color:#252525"/>
	<stop  offset="0.5303" style="stop-color:#414141"/>
	<stop  offset="0.6631" style="stop-color:#656565"/>
	<stop  offset="0.7959" style="stop-color:#929292"/>
	<stop  offset="0.9264" style="stop-color:#C5C5C5"/>
	<stop  offset="1" style="stop-color:#E6E6E6"/>
</linearGradient>
<path style="opacity:0.9;fill:url(#SVGID_00000018200671611038832390000007715595590879469503_);" d="M410.2,559.2
	c0.6,0,1.2,0.1,1.8,0.3v24.9c-2.9,0.7-6.1,1-9.5,1c-2.7,0-5.3-0.2-7.7-0.7c-0.8,2-2.7,3.4-5,3.4c-1.4,0-2.6-0.5-3.5-1.3
	c-0.3,0.2-0.7,0.3-1,0.4c-1.2,0.5-2.5,0.7-3.9,0.7c-3.5,0-6.6-1.6-8.6-4c-1.3,4.7-5.7,8.1-10.8,8.1c-1.8,0-3.5-0.4-5-1.2
	c-2.1,1.4-4.6,2.2-7.3,2.2c-3.8,0-7.3-1.6-9.7-4.3c-2,4.8-6.7,8.1-12.1,8.1c-5.1,0-9.6-2.9-11.7-7.2c-2.1,2.7-5.4,4.4-9.1,4.4
	c-4.2,0-7.8-2.2-9.8-5.5c-2,2.1-4.9,3.5-8.1,3.5c-3.5,0-6.6-1.6-8.6-4.1c-4.1,2.7-9,4.3-14.2,4.3c-4.5,0-8.8-1.2-12.5-3.3
	c-3.6-2-6.6-4.8-8.8-8.3c-2.8,4.3-7.6,7.2-13.1,7.2c-3.8,0-7.4-1.4-10.1-3.7c-0.9-0.8-1.7-1.6-2.5-2.6c-1.2,2.7-3.5,4.9-6.4,5.9
	c-0.2,0.1-0.5,0.1-0.7,0.2c-1,0.3-2,0.4-3.1,0.4c-5.1,0-9.5-3.4-10.8-8.1c-2.1,2.5-5.2,4-8.6,4c-1.8,0-3.5-0.4-4.9-1.2
	c-1,0.8-2.2,1.3-3.6,1.3c-2.3,0-4.2-1.4-5-3.4c-2.4,0.4-5,0.7-7.7,0.7c-3.5,0-6.8-0.4-9.7-1.1c-0.8,2-2.7,3.4-5,3.4
	c-2,0-3.7-1.1-4.6-2.6c-0.7,0.3-1.5,0.5-2.3,0.5c-2,0-3.8-1.1-4.7-2.8c-4.5-0.4-8.4-1.2-11.2-2.3c-0.8,0.9-2,1.5-3.3,1.5
	c-2,0-3.6-1.3-4.2-3.1h-0.7c-11.9,0-21.5-1.4-21.5-3.1c0-1.6,8.8-2.9,19.9-3.1c0.4-2.7,2.7-4.7,5.4-4.7c1.4,0,2.6,0.5,3.6,1.3
	c1-1.4,2.6-2.3,4.5-2.3c1,0,1.9,0.3,2.7,0.7c0.5-2.5,2.7-4.3,5.4-4.3c1.8,0,3.5,0.9,4.5,2.3c1.3-1.3,3.2-2.2,5.2-2.2
	c1,0,2,0.2,2.8,0.6c0.2-2.8,3.4-5.4,8.2-6.9c4.2-1.3,8.4-1.8,12-1.5c1.3-3.9,4.9-6.7,9.2-6.7c2.8,0,5.3,1.2,7.1,3.1
	c1.3-0.5,2.7-0.8,4.1-0.8c1.9,0,3.7,0.5,5.2,1.3c0.9-1.4,2.3-2.5,3.9-3.1c0.8-0.3,1.8-0.5,2.7-0.5c0.3,0,0.6,0,1,0.1
	c2.3-6.8,8.8-11.7,16.4-11.7c3.5,0,6.7,1,9.4,2.8c0.9-4,4.5-7,8.8-7c1.1,0,2.2,0.2,3.3,0.6c0.1-0.8,0.2-1.5,0.3-2.2
	c1.4-5.9,6.7-10.3,13-10.3c2.5,0,4.8,0.7,6.8,1.9c0.8,0.5,1.6,1.1,2.3,1.7c0.1-0.8,0.2-1.6,0.4-2.4h0c0.6-2.8,2-5.3,3.8-7.4
	c3-3.4,7.5-5.5,12.4-5.5c1.4,0,2.7,0.2,4,0.5c4.8,1.2,8.8,4.5,11,8.8c1,2.1,1.6,4.5,1.7,7c1.6-0.7,3.4-1.1,5.2-1.1
	c6.2,0,11.5,4.3,13,10c0.7-0.3,1.5-0.4,2.4-0.4c3.7,0,6.6,3,6.6,6.6c0,0.5-0.1,1-0.2,1.5c5,0.5,9.2,3.4,11.4,7.7
	c1.5-0.8,3.1-1.2,4.9-1.2c1.5,0,2.9,0.3,4.2,0.9c3.3,1.5,5.8,4.6,6.3,8.3c1.1-3.1,4-5.2,7.4-5.2c2.8,0,5.2,1.4,6.6,3.6
	c1.6-0.8,3.3-1.3,5.2-1.3c5.3,0,9.8,3.7,10.9,8.7c1.4-0.6,2.8-0.9,4.4-0.9c2.5,0,4.8,0.8,6.7,2.2c1.1-0.6,2.3-0.9,3.6-0.9
	c1.7,0,3.4,0.6,4.6,1.6c0,0,0,0,0,0c0,0,0,0,0-0.1c0.5-1,1.3-1.9,2.3-2.4C408.4,559.5,409.3,559.2,410.2,559.2z"/>
<linearGradient id="SVGID_00000077299938461753201520000011754371715094104738_" gradientUnits="userSpaceOnUse" x1="413.93" y1="561.17" x2="413.93" y2="560.25">
	<stop  offset="0" style="stop-color:#010101"/>
	<stop  offset="0.1327" style="stop-color:#050505"/>
	<stop  offset="0.2652" style="stop-color:#111111"/>
	<stop  offset="0.3976" style="stop-color:#252525"/>
	<stop  offset="0.5303" style="stop-color:#414141"/>
	<stop  offset="0.6631" style="stop-color:#656565"/>
	<stop  offset="0.7959" style="stop-color:#929292"/>
	<stop  offset="0.9264" style="stop-color:#C5C5C5"/>
	<stop  offset="1" style="stop-color:#E6E6E6"/>
</linearGradient>
<path style="opacity:0.9;fill:url(#SVGID_00000077299938461753201520000011754371715094104738_);" d="M414.4,561.2
	c-0.3-0.3-0.7-0.6-1-0.9C413.8,560.5,414.1,560.8,414.4,561.2z"/>
<linearGradient id="SVGID_00000146500518564529490750000014521016188178500229_" gradientUnits="userSpaceOnUse" x1="435.595" y1="567.8" x2="435.595" y2="567.28">
	<stop  offset="0" style="stop-color:#010101"/>
	<stop  offset="0.1327" style="stop-color:#050505"/>
	<stop  offset="0.2652" style="stop-color:#111111"/>
	<stop  offset="0.3976" style="stop-color:#252525"/>
	<stop  offset="0.5303" style="stop-color:#414141"/>
	<stop  offset="0.6631" style="stop-color:#656565"/>
	<stop  offset="0.7959" style="stop-color:#929292"/>
	<stop  offset="0.9264" style="stop-color:#C5C5C5"/>
	<stop  offset="1" style="stop-color:#E6E6E6"/>
</linearGradient>
<path style="opacity:0.9;fill:url(#SVGID_00000146500518564529490750000014521016188178500229_);" d="M437.2,567.3
	c-1.1,0.2-2.1,0.4-3.2,0.5c0.7-0.3,1.5-0.5,2.3-0.5C436.6,567.3,436.9,567.3,437.2,567.3z"/>
<linearGradient id="SVGID_00000137118658240948909320000017786276092631558316_" gradientUnits="userSpaceOnUse" x1="278.0172" y1="630.86" x2="278.0172" y2="545.5">
	<stop  offset="0" style="stop-color:#010101"/>
	<stop  offset="0.1327" style="stop-color:#050505"/>
	<stop  offset="0.2652" style="stop-color:#111111"/>
	<stop  offset="0.3976" style="stop-color:#252525"/>
	<stop  offset="0.5303" style="stop-color:#414141"/>
	<stop  offset="0.6631" style="stop-color:#656565"/>
	<stop  offset="0.7959" style="stop-color:#929292"/>
	<stop  offset="0.9264" style="stop-color:#C5C5C5"/>
	<stop  offset="1" style="stop-color:#E6E6E6"/>
</linearGradient>
<path style="fill:url(#SVGID_00000137118658240948909320000017786276092631558316_);" d="M412,602.9V621c-1.4,0.7-3,1.1-4.7,1.1
	c-1.7,0-3.3-0.4-4.7-1.2c-0.7-0.4-1.3-0.8-1.9-1.3c-0.9-0.7-1.6-1.6-2.2-2.6c-2.2,3.5-6.1,5.8-10.5,5.8c-3.4,0-6.6-1.4-8.8-3.7
	c-3,4-7.7,6.7-13.1,6.7c-3.8,0-7.4-1.4-10.2-3.6c-0.5,0.6-1.1,1.2-1.6,1.7c-4.4,4.2-10.4,6.8-16.9,6.8c-6.1,0-11.8-2.3-16.1-6
	c-2.6,3-6.5,4.9-10.8,4.9c-5.1,0-9.6-2.7-12.2-6.8c-4.1,4.2-9.8,6.8-16.1,6.8c-8.2,0-15.4-4.4-19.4-11c-2.3,4.3-6.8,7.2-12,7.2
	c-5.8,0-10.8-3.7-12.7-8.8c-1.7,5.5-6.9,9.5-13,9.5c-5.6,0-10.5-3.5-12.5-8.4c-2.8,3.5-7.2,5.7-12,5.7c-6,0-11.2-3.4-13.8-8.4
	c-1.2,1.8-3.2,2.9-5.5,2.9c-2.1,0-4-1-5.2-2.5c-1,1.1-2.5,1.8-4.1,1.8c-0.9,0-1.8-0.2-2.6-0.7c-0.7,0.4-1.5,0.7-2.3,0.7
	c-1.3,0-2.4-0.6-3.2-1.5c-0.6,0.5-1.4,0.9-2.2,0.9c-1.1,0-2-0.5-2.6-1.2c-0.9,0.5-2.4,0.8-4.1,0.7c-1.9-0.1-3.5-0.6-4.3-1.2
	c-3.6,0.4-6.5,0.1-6.7-0.9c-0.2-1.1,3.1-2.4,7.4-3.1c1.9-0.3,3.7-0.4,5.1-0.3c0.2-1.2,1.7-2.2,3.6-2.4c1.9-0.1,3.6,0.7,3.9,1.8
	c0.8-0.8,1.9-1.3,3.1-1.3c0.1,0,0.1,0,0.2,0c0.8-1.3,2.1-2.3,3.7-2.6c0.6-2,2.5-3.5,4.7-3.5c0.7,0,1.4,0.2,2,0.4
	c0.8-2.8,3.3-4.8,6.3-4.8c1.4,0,2.6,0.4,3.7,1.1c2.8-4.2,7.5-7,12.9-7c1.5,0,3,0.2,4.4,0.6c1.5-2.7,4-4.8,6.9-5.9
	c0.2-0.1,0.5-0.2,0.7-0.2c1.2-0.4,2.5-0.6,3.8-0.6c1.5,0,3,0.3,4.3,0.7c0.1-1.2,0.4-2.3,0.7-3.4c2.7-9.6,11.4-16.6,21.8-16.6
	c2.2,0,4.3,0.3,6.3,0.9c0.9-4.2,2.6-8,5-11.3c5.3-7.2,13.8-11.9,23.5-11.9c8.9,0,16.9,4,22.3,10.4c0.5,0.6,1,1.2,1.4,1.8
	c0.4-0.3,0.8-0.7,1.3-1c3.6-2.6,8-4.1,12.8-4.1c7.5,0,14.1,3.7,18.2,9.4c0.6,0.8,1.1,1.6,1.5,2.5c1.4,2.5,2.2,5.4,2.5,8.4
	c2.3-2.5,5.5-4,9.2-4c6.4,0,11.7,4.9,12.4,11.1c2.8-2,6.2-3.2,9.9-3.2c7.1,0,13.1,4.3,15.7,10.5c0.3,0.7,0.5,1.4,0.7,2.1
	c0.5-0.1,1-0.2,1.6-0.2c4,0,7.2,3.2,7.2,7.2v0.2c0.5-0.1,1-0.2,1.5-0.2c3.6,0,6.6,2.7,7.1,6.3c1.3-0.6,2.6-0.9,4.1-0.9
	C409,601.8,410.6,602.2,412,602.9z"/>
<linearGradient id="SVGID_00000166637537133618844790000003288196551173141935_" gradientUnits="userSpaceOnUse" x1="312.825" y1="631.3087" x2="312.825" y2="517.7218">
	<stop  offset="0" style="stop-color:#010101"/>
	<stop  offset="0.1327" style="stop-color:#050505"/>
	<stop  offset="0.2652" style="stop-color:#111111"/>
	<stop  offset="0.3976" style="stop-color:#252525"/>
	<stop  offset="0.5303" style="stop-color:#414141"/>
	<stop  offset="0.6631" style="stop-color:#656565"/>
	<stop  offset="0.7959" style="stop-color:#929292"/>
	<stop  offset="0.9264" style="stop-color:#C5C5C5"/>
	<stop  offset="1" style="stop-color:#E6E6E6"/>
</linearGradient>
<path style="fill:url(#SVGID_00000166637537133618844790000003288196551173141935_);" d="M412,558.7c0.5,0.5,0.9,1.1,1.4,1.5
	c-0.4-0.3-0.9-0.6-1.4-0.7v68.7c-0.8-0.3-1.5-0.7-2.3-1.1c-2.9-1.5-5.3-3.7-7.1-6.2c-0.5-0.6-0.9-1.3-1.3-2
	c-0.2,0.2-0.4,0.5-0.6,0.7c-10.2,11.7-27.4,15.2-41.6,7.5c-1.7-0.9-3.3-2-4.8-3.2c-2.5-2-4.6-4.2-6.4-6.7
	c-4.8,8.3-15.3,11.4-23.8,6.8c-4.1-2.2-7-5.8-8.4-9.9c-5.3,7.5-15.4,10-23.7,5.5c-1.8-1-3.4-2.2-4.7-3.6c-5.2,2.9-11.7,3.1-17.3,0.1
	c-1.4-0.8-2.7-1.7-3.8-2.8c-4,1.5-8.8,1.5-13-0.5c-2.8-1.4-4.9-3.5-6.3-5.9c-1.6,0.8-3.6,1.2-5.8,1.2c-3.8,0-7-1.4-8.8-3.6
	c-0.3,0-0.6,0-0.8,0c-10.6,0-19.2-1.7-19.2-3.7c0-2,8.6-3.7,19.2-3.7c0.3,0,0.6,0,0.8,0c1.8-2.1,5.1-3.6,8.8-3.6
	c1.1,0,2.1,0.1,3.1,0.4c0.1-0.3,0.2-0.7,0.4-1c1.7-3.1,5.1-4.6,8.4-3.9c0.2-0.1,0.3-0.2,0.5-0.2c1-0.5,2.1-0.8,3.2-1
	c-0.2-1.6,0-3.2,0.8-4.8c2-3.8,6.8-5.2,10.5-3.2c1.5,0.8,2.7,2.1,3.3,3.6c1-0.4,1.9-0.7,2.9-1c-0.3-1.7-0.1-3.5,0.8-5.1
	c2-3.8,6.8-5.2,10.5-3.2c0.4,0.2,0.7,0.4,1,0.7c5.8-9.6,18.2-13.1,28.3-7.7c1.2,0.7,2.4,1.4,3.4,2.3c1.4-1.4,3.1-2.5,4.9-3.3
	c3-1.3,6.3-1.7,9.6-1.1c0.1,0,0.2,0,0.3,0.1c0-0.1,0-0.1,0-0.2c0.2-1.1,0.5-2.2,0.8-3.3c0.5-1.4,1-2.7,1.7-4.1
	c3.1-5.7,8.1-9.8,13.8-11.8c2.8-1,5.8-1.5,8.8-1.4c0.7-3.2,1.8-6.3,3.4-9.3c8.9-16.5,29.4-22.6,45.9-13.7c1.6,0.9,3.1,1.8,4.4,2.9
	V558.7z"/>
<linearGradient id="SVGID_00000014592051798165980030000018289766429660087687_" gradientUnits="userSpaceOnUse" x1="413.93" y1="561.17" x2="413.93" y2="560.25">
	<stop  offset="0" style="stop-color:#010101"/>
	<stop  offset="0.1327" style="stop-color:#050505"/>
	<stop  offset="0.2652" style="stop-color:#111111"/>
	<stop  offset="0.3976" style="stop-color:#252525"/>
	<stop  offset="0.5303" style="stop-color:#414141"/>
	<stop  offset="0.6631" style="stop-color:#656565"/>
	<stop  offset="0.7959" style="stop-color:#929292"/>
	<stop  offset="0.9264" style="stop-color:#C5C5C5"/>
	<stop  offset="1" style="stop-color:#E6E6E6"/>
</linearGradient>
<path style="fill:url(#SVGID_00000014592051798165980030000018289766429660087687_);" d="M414.4,561.2c-0.3-0.3-0.7-0.6-1-0.9
	C413.8,560.5,414.1,560.8,414.4,561.2z"/>
<linearGradient id="SVGID_00000160891338825945776070000004195632726861263525_" gradientUnits="userSpaceOnUse" x1="416.18" y1="564.33" x2="416.18" y2="561.17">
	<stop  offset="0" style="stop-color:#010101"/>
	<stop  offset="0.1327" style="stop-color:#050505"/>
	<stop  offset="0.2652" style="stop-color:#111111"/>
	<stop  offset="0.3976" style="stop-color:#252525"/>
	<stop  offset="0.5303" style="stop-color:#414141"/>
	<stop  offset="0.6631" style="stop-color:#656565"/>
	<stop  offset="0.7959" style="stop-color:#929292"/>
	<stop  offset="0.9264" style="stop-color:#C5C5C5"/>
	<stop  offset="1" style="stop-color:#E6E6E6"/>
</linearGradient>
<path style="fill:url(#SVGID_00000160891338825945776070000004195632726861263525_);" d="M414.4,561.2c1.1,1,2.2,1.8,3.5,2.6
	c-0.8,0.1-1.5,0.2-2.2,0.5C415.6,563.1,415.2,562,414.4,561.2z"/>
<linearGradient id="SVGID_00000052083583608228299820000006841287566925290907_" gradientUnits="userSpaceOnUse" x1="433.795" y1="567.98" x2="433.795" y2="567.8">
	<stop  offset="0" style="stop-color:#010101"/>
	<stop  offset="0.1327" style="stop-color:#050505"/>
	<stop  offset="0.2652" style="stop-color:#111111"/>
	<stop  offset="0.3976" style="stop-color:#252525"/>
	<stop  offset="0.5303" style="stop-color:#414141"/>
	<stop  offset="0.6631" style="stop-color:#656565"/>
	<stop  offset="0.7959" style="stop-color:#929292"/>
	<stop  offset="0.9264" style="stop-color:#C5C5C5"/>
	<stop  offset="1" style="stop-color:#E6E6E6"/>
</linearGradient>
<path style="fill:url(#SVGID_00000052083583608228299820000006841287566925290907_);" d="M433.6,567.8c0.1,0,0.3,0,0.4,0
	c-0.1,0-0.2,0.1-0.3,0.2C433.6,567.9,433.6,567.9,433.6,567.8z"/>
<linearGradient id="SVGID_00000034071505751238256240000010030151441819213977_" gradientUnits="userSpaceOnUse" x1="435.595" y1="567.8" x2="435.595" y2="567.28">
	<stop  offset="0" style="stop-color:#010101"/>
	<stop  offset="0.1327" style="stop-color:#050505"/>
	<stop  offset="0.2652" style="stop-color:#111111"/>
	<stop  offset="0.3976" style="stop-color:#252525"/>
	<stop  offset="0.5303" style="stop-color:#414141"/>
	<stop  offset="0.6631" style="stop-color:#656565"/>
	<stop  offset="0.7959" style="stop-color:#929292"/>
	<stop  offset="0.9264" style="stop-color:#C5C5C5"/>
	<stop  offset="1" style="stop-color:#E6E6E6"/>
</linearGradient>
<path style="fill:url(#SVGID_00000034071505751238256240000010030151441819213977_);" d="M437.2,567.3c-1.1,0.2-2.1,0.4-3.2,0.5
	c0.7-0.3,1.5-0.5,2.3-0.5C436.6,567.3,436.9,567.3,437.2,567.3z"/>
<linearGradient id="SVGID_00000013171770082502337240000003549889647507511457_" gradientUnits="userSpaceOnUse" x1="201.5644" y1="858.9246" x2="216.5814" y2="756.1324">
	<stop  offset="0" style="stop-color:#010101"/>
	<stop  offset="0.1327" style="stop-color:#050505"/>
	<stop  offset="0.2652" style="stop-color:#111111"/>
	<stop  offset="0.3976" style="stop-color:#252525"/>
	<stop  offset="0.5303" style="stop-color:#414141"/>
	<stop  offset="0.6631" style="stop-color:#656565"/>
	<stop  offset="0.7959" style="stop-color:#929292"/>
	<stop  offset="0.9264" style="stop-color:#C5C5C5"/>
	<stop  offset="1" style="stop-color:#E6E6E6"/>
</linearGradient>
<path style="opacity:0.9;fill:url(#SVGID_00000013171770082502337240000003549889647507511457_);" d="M412,825v14.5
	c-1.2,0-2.4,0-3.6-0.1c-4.1,2.2-10.6,3.6-17.6,3.9c0,0,0,0.1-0.1,0.2c-2,3.8-5.8,6-9.8,6.3c-2.2,0.1-4.4-0.3-6.5-1.4
	c-1.3-0.7-2.5-1.7-3.4-2.8c-4.9,0.7-10.1,0.7-15.1-0.2c-7.5,5-19,6.6-28.9,3.5c-7.9,7.3-19.8,9.2-29.7,3.8c-0.7-0.3-1.3-0.7-1.9-1.1
	c-5.3,5.7-13.9,7.3-21,3.5c-2.7-1.5-4.9-3.6-6.4-6c-4,6.3-10.2,10.4-17.1,11.8c-1.1,0.2-2.1,0.4-3.2,0.5c-0.1,0-0.3,0-0.4,0
	c-4.8,0.3-9.6-0.7-14.1-3.1c-0.5-0.3-1.1-0.6-1.6-0.9c-1.2-0.8-2.4-1.6-3.4-2.6c-0.4-0.3-0.7-0.6-1-1c-1.3-1.3-2.5-2.7-3.5-4.3
	c-0.2,0.5-0.5,1.1-0.7,1.6c-0.4,0.8-1,1.6-1.5,2.3c-0.7,0.9-1.5,1.7-2.4,2.4c0,0,0,0,0,0c-4.8,3.9-11.7,4.8-17.5,1.7
	c-3.7-2-6.3-5.3-7.5-9c-0.1,0.1-0.1,0.3-0.2,0.4c-4.9,9.1-16.3,12.5-25.3,7.6c-3.2-1.7-5.6-4.2-7.3-7.1c-3.2,3.9-7.3,6.8-11.9,8.6
	c-0.8,0.3-1.6,0.6-2.4,0.8c-0.1,0-0.3,0.1-0.4,0.1c-3.1,0.9-6.3,1.2-9.5,1.1c-4.2-0.2-8.4-1.4-12.3-3.5c-3.1-1.7-5.7-3.8-7.9-6.3
	c-0.7-0.7-1.2-1.5-1.8-2.2c-0.3,0.5-0.6,0.9-0.9,1.4c-4.4,6.2-12.9,8.3-19.7,4.5c-3.5-1.9-6-5-7.2-8.6c-4.2,5.9-12,8.3-18.8,5.5
	c-0.6-0.2-1.1-0.5-1.7-0.8c-1.6-0.8-2.9-1.9-4-3.1c-4.5,2.5-10.1,2.7-15,0.1c-1.2-0.7-2.3-1.5-3.3-2.4c-3.5,1.3-7.6,1.3-11.2-0.4
	c-2.5-1.2-4.3-3-5.4-5.1c-1.4,0.7-3.1,1.1-5,1.1c-1.5,0-3-0.3-4.3-0.8c-1.4-0.5-2.6-1.3-3.4-2.3c-0.2,0-0.5,0-0.7,0
	c-6,0-11.3-0.6-14.2-1.5c-1.5-0.5-2.4-1.1-2.4-1.7s0.9-1.2,2.4-1.7c2.9-0.9,8.2-1.5,14.2-1.5H15c1.5-1.8,4.4-3.1,7.6-3.1
	c0.9,0,1.8,0.1,2.6,0.3c0.1-0.3,0.2-0.6,0.4-0.9c1.4-2.7,4.4-4,7.3-3.4c1-0.5,2.1-0.9,3.2-1.1c-0.2-1.4,0-2.8,0.7-4.1
	c1.8-3.3,5.8-4.5,9.1-2.7c1.3,0.7,2.3,1.8,2.9,3.1c0.8-0.3,1.7-0.6,2.5-0.8c-0.3-1.5-0.1-3,0.7-4.4c1.8-3.3,5.8-4.5,9.1-2.7
	c0.3,0.2,0.6,0.4,0.9,0.6c5-8.3,15.8-11.3,24.4-6.7c0.1,0,0.1,0.1,0.2,0.1c1,0.5,1.9,1.2,2.7,1.8c3.4-3.3,8.2-4.7,12.8-3.7
	c0.2-1.1,0.5-2.2,0.8-3.2c0.4-1.1,0.8-2.2,1.4-3.3c4-7.4,11.6-11.5,19.5-11.4c0.6-2.7,1.5-5.4,2.9-8c7.7-14.2,25.4-19.5,39.7-11.9
	c2.4,1.3,4.5,2.9,6.3,4.6c0.2-0.4,0.4-0.9,0.6-1.3c5.6-10.4,18.6-14.2,28.9-8.6c4,2.2,7.1,5.5,9,9.3c6.8-5.7,16.6-7.1,24.9-2.6
	c6.3,3.4,10.3,9.5,11.4,16.1c4.1-2.4,9.2-2.8,13.7-0.4c4.6,2.5,7.2,7.2,7.2,12.1c7.9-7.4,19.9-9.3,29.9-3.9c5.7,3.1,9.8,8,11.9,13.7
	c3.9,0.1,7.8,1.1,11.5,3c1.5,0.8,2.8,1.7,4.1,2.8c2.3-3.6,6.9-4.8,10.7-2.8c3.2,1.7,4.7,5.2,4.1,8.5c1.8,0.1,3.6,0.4,5.4,0.8
	c0.1-0.2,0.1-0.3,0.2-0.5c3.2-5.9,10.5-8,16.4-4.9c3.5,1.9,5.7,5.3,6.2,9c4.9-9.6,33.5-3.7,34.2,6.6c1.6-3,5.3-4.1,8.3-2.5
	C411.5,824.7,411.8,824.8,412,825z"/>
<linearGradient id="SVGID_00000016044370556960989780000016473674812875303590_" gradientUnits="userSpaceOnUse" x1="141.645" y1="890.48" x2="141.645" y2="799.52">
	<stop  offset="0" style="stop-color:#010101"/>
	<stop  offset="0.1327" style="stop-color:#050505"/>
	<stop  offset="0.2652" style="stop-color:#111111"/>
	<stop  offset="0.3976" style="stop-color:#252525"/>
	<stop  offset="0.5303" style="stop-color:#414141"/>
	<stop  offset="0.6631" style="stop-color:#656565"/>
	<stop  offset="0.7959" style="stop-color:#929292"/>
	<stop  offset="0.9264" style="stop-color:#C5C5C5"/>
	<stop  offset="1" style="stop-color:#E6E6E6"/>
</linearGradient>
<path style="opacity:0.9;fill:url(#SVGID_00000016044370556960989780000016473674812875303590_);" d="M283.3,869.5
	c0,1.7-9.6,3.1-21.5,3.1h-0.7c-0.6,1.8-2.2,3.1-4.2,3.1c-1.3,0-2.5-0.6-3.3-1.5c-2.9,1.1-6.8,2-11.2,2.3c-1.3,4-10.3,8.4-16.6,1.4
	c-2.9,0.7-6.2,1.1-9.7,1.1c-2.7,0-5.3-0.2-7.7-0.7c-0.8,2-2.7,3.4-5,3.4c-1.4,0-2.6-0.5-3.5-1.3c-0.3,0.2-0.7,0.3-1.1,0.4
	c-1.2,0.5-2.5,0.7-3.9,0.7c-3.5,0-6.6-1.6-8.6-4c-1.4,4.7-5.7,8.1-10.8,8.1c-1.8,0-3.5-0.4-5-1.2c-2.1,1.4-4.6,2.2-7.3,2.2
	c-3.8,0-7.3-1.6-9.7-4.3c-2,4.8-6.7,8.1-12.2,8.1c-5.1,0-9.6-2.9-11.8-7.2c-2.1,2.7-5.4,4.4-9.1,4.4c-4.2,0-7.8-2.2-9.8-5.5
	c-2,2.1-4.9,3.5-8.1,3.5c-3.5,0-6.6-1.6-8.7-4.1c-4.1,2.7-9,4.3-14.2,4.3c-4.5,0-8.8-1.2-12.5-3.3c-3.6-2-6.6-4.8-8.8-8.3
	c-2.8,4.3-7.6,7.2-13.1,7.2c-3.8,0-7.4-1.4-10.1-3.7c-0.9-0.8-1.7-1.6-2.5-2.6c-1.3,2.8-3.6,4.9-6.5,5.9c-0.2,0.1-0.4,0.1-0.6,0.2
	c-1,0.3-2,0.5-3.1,0.5c-5.1,0-9.4-3.4-10.8-8.1c-2.1,2.5-5.2,4-8.6,4c-1.1,0-2.1-0.1-3-0.4v-38.1c2,0.4,3.7,1.5,5.1,2.9
	c1.3-0.5,2.7-0.8,4.1-0.8c1.9,0,3.7,0.5,5.2,1.3c0.9-1.4,2.3-2.5,3.9-3.1c0.8-0.3,1.8-0.5,2.7-0.5c0.3,0,0.6,0,1,0.1
	c2.4-6.8,8.8-11.7,16.4-11.7c3.5,0,6.7,1,9.4,2.8c1-4,4.5-7,8.8-7c1.2,0,2.2,0.2,3.3,0.6c0.5-7,6.3-12.5,13.4-12.5
	c3.5,0,6.7,1.4,9.1,3.6c0.3-3.8,1.8-7.2,4.2-9.8c3-3.4,7.5-5.5,12.4-5.5c1.4,0,2.7,0.2,4,0.5c7.2,1.8,12.5,8.1,12.6,15.8
	c1.6-0.7,3.4-1.1,5.2-1.1c6.2,0,11.5,4.3,13,10c0.7-0.3,1.5-0.4,2.3-0.4c3.7,0,6.6,3,6.6,6.6c0,0.5-0.1,1-0.2,1.5
	c5,0.4,9.2,3.4,11.4,7.7c1.5-0.8,3.1-1.2,4.9-1.2c1.5,0,2.9,0.3,4.2,0.9c3.3,1.5,5.8,4.6,6.3,8.3c1.1-3.1,4-5.2,7.5-5.2
	c2.8,0,5.2,1.4,6.6,3.6c1.6-0.8,3.3-1.3,5.2-1.3c5.3,0,9.8,3.7,10.9,8.7c1.3-0.6,2.8-0.9,4.4-0.9c2.5,0,4.8,0.8,6.6,2.2
	c1.1-0.6,2.3-0.9,3.6-0.9c1.8,0,3.4,0.6,4.6,1.6c0,0,0,0,0,0c0,0,0,0,0,0c0,0,0,0,0,0c0.5-1,1.3-1.9,2.4-2.4c0,0,0,0,0,0
	c0.8-0.4,1.6-0.6,2.5-0.6c1.2,0,2.3,0.4,3.2,1c0.4,0.3,0.7,0.6,1,0.9c0,0,0,0,0,0c0.7,0.9,1.2,1.9,1.2,3.1c0.7-0.3,1.4-0.5,2.2-0.5
	c0,0,0,0,0,0c0.2,0,0.4,0,0.7,0c2,0,3.9,0.8,5.2,2.2c1-1.4,2.6-2.3,4.5-2.3c2.6,0,4.8,1.8,5.3,4.2c0,0.1,0,0.1,0,0.2
	c0.1-0.1,0.2-0.1,0.3-0.2h0c0.7-0.3,1.5-0.5,2.3-0.5c0.3,0,0.6,0,0.9,0.1c1.5,0.2,2.7,1.1,3.6,2.2c1-0.8,2.2-1.3,3.6-1.3
	c2.8,0,5.1,2.1,5.4,4.7C274.5,866.6,283.3,867.9,283.3,869.5z"/>
<linearGradient id="SVGID_00000068656042690676983160000007365833957556335030_" gradientUnits="userSpaceOnUse" x1="136.6528" y1="920.2" x2="136.6528" y2="839">
	<stop  offset="0" style="stop-color:#010101"/>
	<stop  offset="0.1327" style="stop-color:#050505"/>
	<stop  offset="0.2652" style="stop-color:#111111"/>
	<stop  offset="0.3976" style="stop-color:#252525"/>
	<stop  offset="0.5303" style="stop-color:#414141"/>
	<stop  offset="0.6631" style="stop-color:#656565"/>
	<stop  offset="0.7959" style="stop-color:#929292"/>
	<stop  offset="0.9264" style="stop-color:#C5C5C5"/>
	<stop  offset="1" style="stop-color:#E6E6E6"/>
</linearGradient>
<path style="fill:url(#SVGID_00000068656042690676983160000007365833957556335030_);" d="M273.3,907.8c-0.1,1-3,1.3-6.7,0.9
	c-0.8,0.7-2.4,1.2-4.3,1.2c-1.7,0.1-3.2-0.2-4.1-0.7c-0.6,0.8-1.5,1.2-2.6,1.2c-0.9,0-1.6-0.3-2.2-0.9c-0.8,0.9-1.9,1.5-3.2,1.5
	c-1.1,0-2.1-0.4-2.9-1.2c-1,1.4-2.6,2.3-4.4,2.3c-1.6,0-3-0.7-4-1.8c-1.2,2.1-3.5,3.5-6.1,3.5c-1.6,0-3.1-0.6-4.3-1.5
	c-1,1.1-2.4,2-3.8,2.6c-1.1,0.4-2.4,0.7-3.6,0.7c-1.3,0-2.5-0.2-3.6-0.7c-0.4-0.1-0.7-0.3-1.1-0.5c-0.7-0.4-1.4-0.8-2-1.3
	c-0.9-0.7-1.6-1.6-2.2-2.6c-1.2,1.9-2.8,3.4-4.8,4.4c-1.7,0.9-3.7,1.4-5.8,1.4c-2.1,0-4.1-0.5-5.8-1.4c-1.1-0.6-2.1-1.3-3-2.2
	c-0.6,0.8-1.2,1.5-1.9,2.2c-2.9,2.8-6.8,4.5-11.2,4.5c-3.8,0-7.4-1.3-10.2-3.6c-0.5,0.6-1,1.2-1.6,1.7c-1-0.8-2-1.7-2.9-2.6h-6.8
	c-5.4,5.1-13.7,6.5-20.6,2.7c-1.4-0.8-2.7-1.7-3.7-2.7h-15.3c-2.8,0.7-5.7,0.7-8.6,0H78.4c-0.7-0.9-1.4-1.8-1.9-2.7
	c-0.5,1-1.2,1.9-1.9,2.7c-2.5,2.7-6.1,4.5-10,4.5c-4,0-7.6-1.7-10-4.5c-1.1-1.3-2-2.7-2.7-4.3c-0.5,1.6-1.3,3.1-2.3,4.3
	c-2.5,3.2-6.4,5.2-10.7,5.2s-8.2-2-10.7-5.2c-0.8-1-1.4-2-1.9-3.2c-1,1.2-2.2,2.3-3.5,3.2c-2.4,1.6-5.4,2.6-8.5,2.6
	c-3.1,0-6.1-0.9-8.5-2.6c-2.2-1.5-4-3.5-5.3-5.9c-0.2,0.2-0.3,0.4-0.5,0.6v-16.9c0.5,0.2,0.9,0.4,1.3,0.7c2.8-4.2,7.5-7,12.9-7
	c1.5,0,3,0.2,4.4,0.6c1.5-2.7,4-4.8,6.9-5.9c0.2-0.1,0.4-0.1,0.6-0.2c1.2-0.4,2.5-0.6,3.9-0.6c1.5,0,3,0.3,4.3,0.7
	c0.1-1.2,0.4-2.3,0.7-3.4c2.7-9.5,11.4-16.6,21.8-16.6c2.2,0,4.3,0.3,6.3,0.9c0.9-4.2,2.6-8,5-11.3c5.3-7.2,13.8-11.9,23.5-11.9
	c8.9,0,16.9,4,22.3,10.4c0.5,0.6,1,1.2,1.4,1.8c0.4-0.3,0.8-0.7,1.3-1c3.6-2.6,8-4.1,12.8-4.1c7.5,0,14.1,3.7,18.2,9.4
	c0.5,0.8,1.1,1.6,1.5,2.5c1.3,2.5,2.2,5.4,2.5,8.4c2.3-2.5,5.5-4,9.2-4c6.4,0,11.7,4.9,12.4,11.1c2.8-2,6.2-3.2,9.9-3.2
	c7.1,0,13.1,4.3,15.7,10.5c0.3,0.7,0.5,1.4,0.7,2.1c0.5-0.1,1-0.2,1.6-0.2c4,0,7.2,3.2,7.2,7.2c0,0.1,0,0.1,0,0.2
	c0.5-0.1,1-0.2,1.5-0.2c3.7,0,6.7,2.7,7.1,6.3c1.3-0.6,2.7-0.9,4.1-0.9c2.3,0,4.4,0.8,6.1,2.1c1.3-1.1,2.9-1.8,4.7-1.8
	c2.7,0,5,1.5,6.2,3.6c0.5-0.2,1-0.4,1.6-0.4c1.7,0,3.1,1.1,3.6,2.6c1.6,0.1,3,1,3.9,2.2c0.8-0.7,1.8-1.2,2.9-1.2
	c1.2,0,2.3,0.5,3.1,1.4c0.4-1.2,2-2,3.9-1.8c1.9,0.2,3.4,1.2,3.6,2.4c1.4-0.1,3.2,0,5.1,0.3C270.2,905.4,273.5,906.8,273.3,907.8z"
	/>
<linearGradient id="SVGID_00000101066518297084811690000004193649892693299881_" gradientUnits="userSpaceOnUse" x1="218.925" y1="919.8483" x2="218.925" y2="806.1356">
	<stop  offset="0" style="stop-color:#010101"/>
	<stop  offset="0.1327" style="stop-color:#050505"/>
	<stop  offset="0.2652" style="stop-color:#111111"/>
	<stop  offset="0.3976" style="stop-color:#252525"/>
	<stop  offset="0.5303" style="stop-color:#414141"/>
	<stop  offset="0.6631" style="stop-color:#656565"/>
	<stop  offset="0.7959" style="stop-color:#929292"/>
	<stop  offset="0.9264" style="stop-color:#C5C5C5"/>
	<stop  offset="1" style="stop-color:#E6E6E6"/>
</linearGradient>
<path style="fill:url(#SVGID_00000101066518297084811690000004193649892693299881_);" d="M412,862.8v50.4c-1.7-0.3-3.4-0.7-5.1-1.2
	c-1.2,1.1-2.5,2.1-3.9,3h-62.2c-0.8-0.9-1.6-1.9-2.2-2.9c-0.6,1-1.3,2-2.1,2.9h-47.5c-0.6-0.8-1.2-1.6-1.8-2.4
	c-0.3,0.6-0.5,1.2-0.9,1.8c-0.1,0.2-0.2,0.4-0.3,0.6h-31.6c-0.7-1.1-1.2-2.3-1.6-3.6c-0.1,0.2-0.1,0.3-0.2,0.5
	c-0.6,1.1-1.3,2.1-2,3.1h-26.1c-1.1,0.4-2.4,0.7-3.6,0.7c-1.3,0-2.5-0.2-3.6-0.7h-0.7c-0.1-0.2-0.2-0.3-0.4-0.5
	c-0.5-0.7-0.9-1.3-1.3-2c-0.2,0.2-0.4,0.5-0.6,0.7c-0.5,0.6-1.1,1.2-1.7,1.8h-5.2c-1.7,0.9-3.7,1.4-5.8,1.4c-2.1,0-4.1-0.5-5.8-1.4
	h-5c-2.9,2.8-6.8,4.5-11.2,4.5c-3.8,0-7.4-1.3-10.2-3.6c-0.5,0.6-1,1.2-1.6,1.7c-1-0.8-2-1.7-2.9-2.6c-1.3-1.3-2.5-2.7-3.5-4.1
	c-0.9,1.6-2,2.9-3.2,4.1c-5.4,5.1-13.7,6.5-20.6,2.7c-1.4-0.8-2.7-1.7-3.7-2.7c-2.1-2-3.7-4.5-4.6-7.2c-2.6,3.7-6.5,6.2-10.7,7.2
	c-2.8,0.7-5.7,0.7-8.6,0c-1.5-0.4-3-0.9-4.4-1.7c-1.8-1-3.4-2.2-4.7-3.6c-5.2,2.9-11.7,3.1-17.3,0.1c-1.4-0.8-2.7-1.7-3.8-2.8
	c-4.1,1.5-8.8,1.5-13-0.5c-2.8-1.4-5-3.5-6.3-5.9c-1.6,0.8-3.6,1.2-5.8,1.2c-3.8,0-7-1.4-8.8-3.6c-0.3,0-0.5,0-0.8,0
	c-10.6,0-19.2-1.7-19.2-3.7c0-2,8.6-3.7,19.2-3.7h0.8c1.8-2.1,5.1-3.6,8.8-3.6c1.1,0,2.1,0.1,3,0.4c0.1-0.3,0.2-0.7,0.4-1
	c1.7-3.1,5.1-4.6,8.4-3.9c0.2-0.1,0.3-0.2,0.5-0.2c1-0.5,2.1-0.8,3.2-1c-0.2-1.6,0-3.2,0.8-4.8c2-3.8,6.8-5.2,10.5-3.2
	c1.5,0.8,2.7,2.1,3.3,3.6c0.9-0.4,1.9-0.7,2.9-1c-0.3-1.7-0.1-3.5,0.8-5.1c2-3.8,6.8-5.2,10.5-3.2c0.4,0.2,0.7,0.4,1,0.7
	c5.8-9.6,18.2-13.1,28.3-7.7c1.2,0.7,2.3,1.4,3.4,2.3c1.4-1.4,3.1-2.5,4.9-3.3c3-1.3,6.3-1.7,9.5-1.1c0.1,0,0.2,0,0.4,0.1
	c0-0.1,0-0.1,0-0.2c0.2-1.1,0.5-2.2,0.8-3.3c0.5-1.4,1-2.7,1.7-4.1c3.1-5.7,8.1-9.8,13.8-11.8c2.8-1,5.8-1.5,8.8-1.4
	c0.7-3.2,1.8-6.3,3.4-9.3c8.9-16.5,29.4-22.6,45.9-13.7c2.7,1.5,5.2,3.3,7.3,5.3c0.2-0.5,0.5-1,0.7-1.5c6.5-12,21.5-16.5,33.5-10
	c4.7,2.5,8.2,6.3,10.4,10.8c7.9-6.6,19.2-8.2,28.8-3c7.3,4,12,11,13.2,18.6c4.7-2.8,10.7-3.2,15.8-0.4c5.3,2.9,8.3,8.4,8.4,14
	c9.1-8.6,23-10.8,34.6-4.5c2.7,1.5,5,3.2,7.1,5.3c3,3,5.2,6.6,6.7,10.5c4.5,0.1,9,1.2,13.2,3.5c1.7,0.9,3.3,2,4.7,3.2
	C407,864.7,409.4,863.2,412,862.8z"/>
</svg>
